<!DOCTYPE svg PUBLIC "-//W3C//DTD SVG 1.1//EN" "http://www.w3.org/Graphics/SVG/1.1/DTD/svg11.dtd">
<!-- Uploaded to: SVG Repo, www.svgrepo.com, Transformed by: SVG Repo Mixer Tools -->
<svg fill="#ff9b3d" height="120px" width="120px" version="1.1" xmlns="http://www.w3.org/2000/svg" viewBox="-140.3 -140.3 748.28 748.28" xmlns:xlink="http://www.w3.org/1999/xlink" enable-background="new 0 0 467.681 467.681" stroke="#ff9b3d" stroke-width="21.045645">
<g id="SVGRepo_bgCarrier" stroke-width="0">
<rect x="-140.3" y="-140.3" width="748.28" height="748.28" rx="374.14" fill="#ffa55245" strokewidth="0"/>
</g>
<g id="SVGRepo_iconCarrier"> <g> <path d="m367.418,154.134c-29.445,0-62.602,7.451-84.542,12.382-0.276,0.062-0.552,0.124-0.829,0.186 0.016-0.018 0.033-0.035 0.049-0.053 32.015-34.538 91.608-98.827 58.871-142.799-11.781-15.826-26.357-23.85-43.321-23.85-21.664,0-41.759,13.374-55.056,22.224-3.004,1.999-6.585,4.383-8.75,5.563-2.164-1.18-5.747-3.563-8.751-5.563-13.297-8.85-33.393-22.224-55.055-22.224-16.964,0-31.54,8.024-43.321,23.85-32.737,43.972 26.856,108.261 58.871,142.799 0.017,0.019 0.033,0.036 0.05,0.054-0.277-0.063-0.555-0.125-0.832-0.187-21.94-4.931-55.096-12.382-84.54-12.382-35.517,0-58.251,10.958-67.572,32.567-9.505,22.037-6.757,42.436 7.948,58.989 11.559,13.012 27.9,21.108 39.833,27.021 3.233,1.602 7.089,3.513 9.194,4.797 0.06,2.465-0.214,6.759-0.443,10.359-0.847,13.289-2.006,31.489 3.483,48.006 6.983,21.013 23.274,33.592 47.112,36.379 1.849,0.216 3.717,0.325 5.554,0.326 0.006,0 0.009,0 0.014,0 22.304-0.001 42.137-15.804 58.943-46.969 7.875-14.604 14.25-30.808 19.512-45.966v188.037h20v-188.05c5.263,15.159 11.639,31.366 19.516,45.973 16.81,31.17 36.643,46.975 58.949,46.975 1.834,0 3.704-0.109 5.558-0.326 23.837-2.787 40.128-15.366 47.112-36.379 5.49-16.517 4.331-34.717 3.484-48.006-0.229-3.601-0.503-7.895-0.443-10.359 2.105-1.284 5.961-3.194 9.194-4.797 11.932-5.912 28.273-14.009 39.833-27.021 14.705-16.554 17.454-36.952 7.948-58.989-9.322-21.609-32.056-32.567-67.573-32.567zm10.913,100.656c-9.483,4.698-15.207,7.535-18.059,12.474-2.852,4.938-2.445,11.313-1.773,21.874 1.979,31.069 0.947,59.286-32.958,63.249-1.085,0.127-2.174,0.191-3.235,0.191-35.051,0-57.599-72.11-68.434-106.765-2.431-7.774-4.53-14.487-6.357-19.34-1.933-5.132-5.166-13.721-13.674-13.721-8.508,0-11.741,8.589-13.673,13.722-1.827,4.852-3.925,11.565-6.355,19.339-10.833,34.655-33.374,106.765-68.426,106.765-0.002,0-0.005,0-0.007,0-1.066,0-2.156-0.064-3.238-0.191-33.905-3.963-34.937-32.18-32.958-63.249 0.672-10.561 1.079-16.936-1.773-21.874-2.852-4.938-8.576-7.775-18.059-12.474-27.896-13.821-51.815-28.823-38.296-60.167 5.947-13.787 22.043-20.489 49.208-20.489 27.224,0 59.077,7.158 80.155,11.895 13.95,3.135 21.459,4.771 26.351,4.771 0.001,0 0.003,0 0.004,0 8.789-0.002 11.354-5.933 11.931-7.751 2.085-6.57-2.594-12.151-6.01-16.227-3.051-3.64-7.403-8.334-12.441-13.77-26.065-28.119-80.301-86.63-57.497-117.26 7.91-10.626 16.833-15.792 27.277-15.792 15.615,0 32.007,10.908 43.976,18.873 8.81,5.863 14.128,9.402 19.83,9.402 5.703,0 11.021-3.539 19.831-9.402 11.968-7.965 28.359-18.873 43.975-18.873 10.444,0 19.367,5.166 27.279,15.793 22.804,30.63-31.432,89.141-57.497,117.26-5.039,5.436-9.39,10.13-12.441,13.77-3.416,4.075-8.094,9.656-6.01,16.227 0.577,1.818 3.143,7.752 11.934,7.751 4.892-0.001 12.4-1.637 26.351-4.771 21.078-4.736 52.932-11.895 80.157-11.895 26.788,0 43.344,6.893 49.208,20.489 13.519,31.343-10.401,46.345-38.296,60.166z"/> </g> </g>
</svg>