<!DOCTYPE svg PUBLIC "-//W3C//DTD SVG 1.1//EN" "http://www.w3.org/Graphics/SVG/1.1/DTD/svg11.dtd">
<!-- Uploaded to: SVG Repo, www.svgrepo.com, Transformed by: SVG Repo Mixer Tools -->
<svg fill="#155465" width="64px" height="64px" viewBox="-28.16 -28.16 312.32 312.32" id="Flat" xmlns="http://www.w3.org/2000/svg" stroke="#155465" stroke-width="0.00256">
<g id="SVGRepo_bgCarrier" stroke-width="0" transform="translate(0,0), scale(1)"/>
<g id="SVGRepo_tracerCarrier" stroke-linecap="round" stroke-linejoin="round" stroke="#CCCCCC" stroke-width="0.512"/>
<g id="SVGRepo_iconCarrier"> <path d="M235.39893,209.9834A124.42854,124.42854,0,0,0,173.59937,156.759a76,76,0,1,0-91.19874,0A124.43041,124.43041,0,0,0,20.60254,209.981,12.00005,12.00005,0,0,0,41.376,222.00049a100.03726,100.03726,0,0,1,173.24951.00146,11.99981,11.99981,0,0,0,20.77344-12.01855ZM76,96a52,52,0,1,1,52,52A52.059,52.059,0,0,1,76,96Z"/> </g>
</svg>