<!DOCTYPE svg PUBLIC "-//W3C//DTD SVG 1.1//EN" "http://www.w3.org/Graphics/SVG/1.1/DTD/svg11.dtd">
<!-- Uploaded to: SVG Repo, www.svgrepo.com, Transformed by: SVG Repo Mixer Tools -->
<svg width="100px" height="100px" viewBox="-12 -12 72.00 72.00" xmlns="http://www.w3.org/2000/svg" fill="#ffc83d" stroke="#ffc83d" stroke-width="0.00048000000000000007">
<g id="SVGRepo_bgCarrier" stroke-width="0">
<rect x="-12" y="-12" width="72.00" height="72.00" rx="36" fill="#ffc83d23" strokewidth="0"/>
</g>
<g id="SVGRepo_iconCarrier"> <title>men-solid</title> <g id="Layer_2" data-name="Layer 2"> <g id="invisible_box" data-name="invisible box"> <rect width="48" height="48" fill="none"/> </g> <g id="icons_Q2" data-name="icons Q2"> <circle cx="24" cy="6" r="4"/> <path d="M33,28a2,2,0,0,1-2-2V16H17V26a2,2,0,0,1-4,0V14a2,2,0,0,1,2-2H33a2,2,0,0,1,2,2V26A2,2,0,0,1,33,28Z"/> <path d="M24,46a2,2,0,0,1-2-1.8l-2-20V19h8v5.2l-2,20A2,2,0,0,1,24,46Z"/> </g> </g> </g>
</svg>